<?xml version="1.0" encoding="UTF-8" standalone="no"?>
<!DOCTYPE svg PUBLIC "-//W3C//DTD SVG 1.1//EN" "http://www.w3.org/Graphics/SVG/1.1/DTD/svg11.dtd">
<svg width="100%" height="100%" viewBox="0 0 1080 1080" version="1.1" xmlns="http://www.w3.org/2000/svg" xmlns:xlink="http://www.w3.org/1999/xlink" xml:space="preserve" xmlns:serif="http://www.serif.com/" style="fill-rule:evenodd;clip-rule:evenodd;stroke-linecap:round;stroke-linejoin:round;stroke-miterlimit:1.5;">
    <g id="Wallet-inner" serif:id="Wallet inner" transform="matrix(-1.64944,1.50202e-16,-5.75121e-16,-1.97792,1414.01,1904.72)">
        <path d="M745.503,521.817L745.503,881.132C745.503,900.981 726.179,917.095 702.379,917.095L357.387,917.095C333.586,917.095 314.263,900.981 314.263,881.132L314.263,521.817C314.263,501.969 333.586,485.855 357.387,485.855L702.379,485.855C726.179,485.855 745.503,501.969 745.503,521.817Z" style="fill:rgb(76,0,241);stroke:url(#_Linear1);stroke-width:16.47px;"/>
    </g>
    <g id="Chain">
        <g transform="matrix(-0.322708,2.37112e-17,-3.25422e-17,-0.203719,514.936,372.391)">
            <path d="M745.503,636.789L745.503,766.161C745.503,849.464 702.808,917.095 650.221,917.095L409.544,917.095C356.957,917.095 314.263,849.464 314.263,766.161L314.263,636.789C314.263,553.486 356.957,485.855 409.544,485.855L650.221,485.855C702.808,485.855 745.503,553.486 745.503,636.789Z" style="fill:none;stroke:url(#_Linear2);stroke-width:74.11px;"/>
        </g>
        <g transform="matrix(0.318366,0,1.08474e-17,0.197519,263.378,134.858)">
            <path d="M745.503,636.789L745.503,766.161C745.503,849.464 703.543,917.095 651.861,917.095L407.904,917.095C356.222,917.095 314.263,849.464 314.263,766.161L314.263,636.789C314.263,553.486 356.222,485.855 407.904,485.855L651.861,485.855C703.543,485.855 745.503,553.486 745.503,636.789Z" style="fill:none;stroke:url(#_Linear3);stroke-width:75.49px;"/>
        </g>
    </g>
    <g id="Text-header" serif:id="Text header">
        <g transform="matrix(0.550965,0,0,0.904568,353.954,-95.6087)">
            <path d="M826.158,314.434L826.158,320.16C826.158,323.846 821.244,326.839 815.191,326.839L399.298,326.839C393.246,326.839 388.332,323.846 388.332,320.16L388.332,314.434C388.332,310.747 393.246,307.754 399.298,307.754L815.191,307.754C821.244,307.754 826.158,310.747 826.158,314.434Z" style="fill:rgb(235,235,235);"/>
        </g>
        <g transform="matrix(0.550965,0,0,0.904568,353.954,-43.028)">
            <path d="M826.158,314.434L826.158,320.16C826.158,323.846 821.244,326.839 815.191,326.839L399.298,326.839C393.246,326.839 388.332,323.846 388.332,320.16L388.332,314.434C388.332,310.747 393.246,307.754 399.298,307.754L815.191,307.754C821.244,307.754 826.158,310.747 826.158,314.434Z" style="fill:rgb(235,235,235);"/>
        </g>
        <g transform="matrix(0.550965,0,0,0.904568,353.954,11.8227)">
            <path d="M826.158,314.434L826.158,320.16C826.158,323.846 821.244,326.839 815.191,326.839L399.298,326.839C393.246,326.839 388.332,323.846 388.332,320.16L388.332,314.434C388.332,310.747 393.246,307.754 399.298,307.754L815.191,307.754C821.244,307.754 826.158,310.747 826.158,314.434Z" style="fill:rgb(235,235,235);"/>
        </g>
    </g>
    <g id="Text-body" serif:id="Text body">
        <g transform="matrix(0.745487,0,0,0.975118,193.248,116.449)">
            <path d="M826.158,314.434L826.158,320.16C826.158,323.846 822.243,326.839 817.421,326.839L397.069,326.839C392.247,326.839 388.332,323.846 388.332,320.16L388.332,314.434C388.332,310.747 392.247,307.754 397.069,307.754L817.421,307.754C822.243,307.754 826.158,310.747 826.158,314.434Z" style="fill:rgb(235,235,235);"/>
        </g>
        <g transform="matrix(0.460759,0,0,0.975118,74.655,115.669)">
            <path d="M826.158,314.434L826.158,320.16C826.158,323.846 819.824,326.839 812.022,326.839L402.468,326.839C394.666,326.839 388.332,323.846 388.332,320.16L388.332,314.434C388.332,310.747 394.666,307.754 402.468,307.754L812.022,307.754C819.824,307.754 826.158,310.747 826.158,314.434Z" style="fill:rgb(235,235,235);"/>
        </g>
        <g transform="matrix(0.545177,0,0,0.975118,358.736,174.354)">
            <path d="M826.158,314.434L826.158,320.16C826.158,323.846 820.805,326.839 814.211,326.839L400.279,326.839C393.685,326.839 388.332,323.846 388.332,320.16L388.332,314.434C388.332,310.747 393.685,307.754 400.279,307.754L814.211,307.754C820.805,307.754 826.158,310.747 826.158,314.434Z" style="fill:rgb(235,235,235);"/>
        </g>
        <g transform="matrix(0.65418,0,0,0.975118,-0.456497,174.354)">
            <path d="M826.158,314.434L826.158,320.16C826.158,323.846 821.697,326.839 816.201,326.839L398.289,326.839C392.793,326.839 388.332,323.846 388.332,320.16L388.332,314.434C388.332,310.747 392.793,307.754 398.289,307.754L816.201,307.754C821.697,307.754 826.158,310.747 826.158,314.434Z" style="fill:rgb(235,235,235);"/>
        </g>
        <g transform="matrix(0.23038,0,0,0.975118,164.119,231.839)">
            <path d="M826.158,314.434L826.158,320.16C826.158,323.846 813.489,326.839 797.885,326.839L416.605,326.839C401,326.839 388.332,323.846 388.332,320.16L388.332,314.434C388.332,310.747 401,307.754 416.605,307.754L797.885,307.754C813.489,307.754 826.158,310.747 826.158,314.434Z" style="fill:rgb(235,235,235);"/>
        </g>
        <g transform="matrix(0.960386,0,0,0.975118,3.79515,231.839)">
            <path d="M826.158,314.434L826.158,320.16C826.158,323.846 823.119,326.839 819.376,326.839L395.114,326.839C391.371,326.839 388.332,323.846 388.332,320.16L388.332,314.434C388.332,310.747 391.371,307.754 395.114,307.754L819.376,307.754C823.119,307.754 826.158,310.747 826.158,314.434Z" style="fill:rgb(235,235,235);"/>
        </g>
        <g transform="matrix(1.09065,0,0,0.975118,-169.952,288.116)">
            <path d="M826.158,314.434L826.158,320.16C826.158,323.846 823.482,326.839 820.186,326.839L394.304,326.839C391.008,326.839 388.332,323.846 388.332,320.16L388.332,314.434C388.332,310.747 391.008,307.754 394.304,307.754L820.186,307.754C823.482,307.754 826.158,310.747 826.158,314.434Z" style="fill:rgb(235,235,235);"/>
        </g>
        <g transform="matrix(0.302125,0,0,0.975118,559.536,345.407)">
            <path d="M826.158,314.434L826.158,320.16C826.158,323.846 816.498,326.839 804.599,326.839L409.891,326.839C397.992,326.839 388.332,323.846 388.332,320.16L388.332,314.434C388.332,310.747 397.992,307.754 409.891,307.754L804.599,307.754C816.498,307.754 826.158,310.747 826.158,314.434Z" style="fill:rgb(235,235,235);"/>
        </g>
        <g transform="matrix(0.911781,0,0,0.975118,-100.491,345.407)">
            <path d="M826.158,314.434L826.158,320.16C826.158,323.846 822.957,326.839 819.014,326.839L395.475,326.839C391.533,326.839 388.332,323.846 388.332,320.16L388.332,314.434C388.332,310.747 391.533,307.754 395.475,307.754L819.014,307.754C822.957,307.754 826.158,310.747 826.158,314.434Z" style="fill:rgb(235,235,235);"/>
        </g>
        <g transform="matrix(1.2689,0,0,0.975118,-239.17,402.891)">
            <path d="M826.158,314.434L826.158,320.16C826.158,323.846 823.858,326.839 821.025,326.839L393.465,326.839C390.632,326.839 388.332,323.846 388.332,320.16L388.332,314.434C388.332,310.747 390.632,307.754 393.465,307.754L821.025,307.754C823.858,307.754 826.158,310.747 826.158,314.434Z" style="fill:rgb(235,235,235);"/>
        </g>
    </g>
    <g id="Signature" transform="matrix(0.610724,0,0,0.975118,304.584,502.785)">
        <path d="M826.158,314.434L826.158,320.16C826.158,323.846 821.379,326.839 815.493,326.839L398.997,326.839C393.111,326.839 388.332,323.846 388.332,320.16L388.332,314.434C388.332,310.747 393.111,307.754 398.997,307.754L815.493,307.754C821.379,307.754 826.158,310.747 826.158,314.434Z" style="fill:rgb(235,235,235);"/>
    </g>
    <defs>
        <linearGradient id="_Linear1" x1="0" y1="0" x2="1" y2="0" gradientUnits="userSpaceOnUse" gradientTransform="matrix(431.24,0,0,431.24,314.263,701.475)"><stop offset="0" style="stop-color:rgb(204,216,240);stop-opacity:1"/><stop offset="0.44" style="stop-color:rgb(42,78,245);stop-opacity:1"/><stop offset="1" style="stop-color:rgb(37,2,89);stop-opacity:1"/></linearGradient>
        <linearGradient id="_Linear2" x1="0" y1="0" x2="1" y2="0" gradientUnits="userSpaceOnUse" gradientTransform="matrix(431.24,0,0,431.24,314.263,701.475)"><stop offset="0" style="stop-color:rgb(204,216,240);stop-opacity:1"/><stop offset="0.44" style="stop-color:rgb(42,78,245);stop-opacity:1"/><stop offset="1" style="stop-color:rgb(37,2,89);stop-opacity:1"/></linearGradient>
        <linearGradient id="_Linear3" x1="0" y1="0" x2="1" y2="0" gradientUnits="userSpaceOnUse" gradientTransform="matrix(431.24,0,0,431.24,314.263,701.475)"><stop offset="0" style="stop-color:rgb(204,216,240);stop-opacity:1"/><stop offset="0.44" style="stop-color:rgb(42,78,245);stop-opacity:1"/><stop offset="1" style="stop-color:rgb(37,2,89);stop-opacity:1"/></linearGradient>
    </defs>
</svg>
